<svg width="24" height="24" viewBox="0 0 24 24" fill="none" xmlns="http://www.w3.org/2000/svg">
<path fill-rule="evenodd" clip-rule="evenodd" d="M10.54 8.8841C10.54 6.7241 9.13598 5.7251 6.67898 5.7251H2.26898V19.0001H6.60698C9.44198 19.0001 10.828 17.6591 10.828 15.3281C10.828 12.9521 9.22598 12.0701 7.69598 12.0341C9.09998 11.9711 10.54 10.9271 10.54 8.8841ZM3.75398 7.0751H6.30998C7.92998 7.0751 9.00098 7.6151 9.00098 9.1181C9.00098 10.6301 7.87598 11.4131 5.95898 11.4131H3.75398V7.0751ZM9.26198 15.2471C9.26198 16.8401 8.13698 17.6501 6.30998 17.6501H3.75398V12.7541H6.03998C7.74998 12.7541 9.26198 13.3121 9.26198 15.2471Z" fill="#1B1B1B"/>
<path fill-rule="evenodd" clip-rule="evenodd" d="M17.8286 19.1891C20.7356 19.1891 22.2926 17.5241 22.4186 15.9941H20.8886C20.7986 16.8311 19.8986 17.7851 17.8736 17.7851C15.9476 17.7851 14.6876 16.6781 14.4626 14.8331H22.5266C22.5446 14.7251 22.5626 14.3291 22.5626 14.1401C22.5626 11.3501 20.7356 9.2981 17.8376 9.2981C14.9846 9.2981 12.9416 11.3231 12.9416 14.2481C12.9416 17.1551 14.9576 19.1891 17.8286 19.1891ZM14.4896 13.4651C14.7686 11.7371 16.0646 10.6841 17.8556 10.6841C19.7636 10.6841 20.8166 11.9261 20.9156 13.4651H14.4896Z" fill="#1B1B1B"/>
<path d="M14 7.7501H21V6.2501H14V7.7501Z" fill="#1B1B1B"/>
</svg>
