<svg width="24" height="24" viewBox="0 0 24 24" fill="none" xmlns="http://www.w3.org/2000/svg">
<path d="M15.0001 21V17L14.0001 16C15.0001 15.8333 17.2001 15.4 18.0001 15C19.0001 14.5 20.0001 13 20.0001 11C20.0001 9.5 20.0001 8 19.0001 6C19.4001 4.4 19.8334 2.66667 20.0001 2L15.0001 4C14.3334 4 12.8001 4 12.0001 4C11.2001 4 9.66674 4 9.00007 4L4.00007 2L5.00007 6C4.50007 7.16667 4.00007 9.73509 4.00007 11C4.00007 13 4.73509 14.3675 6 15C7 15.5 9 16 10 16L9 17V21C8.33331 21.3333 6.35082 21.7541 6 20C5.5 17.5 5.00007 16.5 3 16" stroke="#1B1B1B" stroke-width="1.5" stroke-linejoin="round"/>
</svg>
